<?xml version="1.0" encoding="UTF-8"?>
<svg width="8px" height="14px" viewBox="0 0 8 14" version="1.1" xmlns="http://www.w3.org/2000/svg" xmlns:xlink="http://www.w3.org/1999/xlink">
    <!-- Generator: Sketch 47.1 (45422) - http://www.bohemiancoding.com/sketch -->
    <title>chevron_up</title>
    <desc>Created with Sketch.</desc>
    <defs>
        <path d="M0.29289322,12.2928932 C-0.09763107,12.6834175 -0.09763107,13.3165825 0.29289322,13.7071068 C0.68341751,14.0976311 1.31658249,14.0976311 1.70710678,13.7071068 L7.7071068,7.7071068 C8.0976311,7.3165825 8.0976311,6.6834175 7.7071068,6.2928932 L1.70710678,0.29289322 C1.31658249,-0.09763107 0.68341751,-0.09763107 0.29289322,0.29289322 C-0.09763107,0.68341751 -0.09763107,1.31658249 0.29289322,1.70710678 L5.5857864,7 L0.29289322,12.2928932 Z" id="path-1"></path>
    </defs>
    <g id="Page-1" stroke="none" stroke-width="1" fill="none" fill-rule="evenodd">
        <g id="chevron_up" transform="translate(4.000000, 7.000000) rotate(-90.000000) translate(-4.000000, -7.000000) translate(-3.000000, 3.000000)">
            <g id="chevron_down" transform="translate(7.000000, 4.000000) rotate(180.000000) translate(-7.000000, -4.000000) translate(-0.000000, 0.000000)">
                <g id="chevron_right" transform="translate(7.000000, 4.000000) rotate(90.000000) translate(-7.000000, -4.000000) translate(3.000000, -3.000000)">
                    <g id="Shape" fill-rule="nonzero" fill="#0033AB">
                        <path d="M0.29289322,12.2928932 C-0.09763107,12.6834175 -0.09763107,13.3165825 0.29289322,13.7071068 C0.68341751,14.0976311 1.31658249,14.0976311 1.70710678,13.7071068 L7.7071068,7.7071068 C8.0976311,7.3165825 8.0976311,6.6834175 7.7071068,6.2928932 L1.70710678,0.29289322 C1.31658249,-0.09763107 0.68341751,-0.09763107 0.29289322,0.29289322 C-0.09763107,0.68341751 -0.09763107,1.31658249 0.29289322,1.70710678 L5.5857864,7 L0.29289322,12.2928932 Z" id="path-1"></path>
                    </g>
                    <g id="Fill/Black-Clipped">
                        <g>
                            <mask id="mask-2" fill="white">
                                <use xlink:href="#path-1"></use>
                            </mask>
                            <g id="path-1"></g>
                            <g id="Fill/Black" mask="url(#mask-2)">
                                <g transform="translate(-8.000000, -5.000000)" id="Rectangle-4">
                                    <g>
                                        <g id="Group" fill-rule="nonzero" fill="#0033AB">
                                            <g id="path-3">
                                                <rect x="0" y="0" width="24" height="24"></rect>
                                            </g>
                                        </g>
                                    </g>
                                </g>
                            </g>
                        </g>
                    </g>
                </g>
            </g>
        </g>
    </g>
</svg>
