<?xml version="1.0" encoding="UTF-8"?>
<svg width="20px" height="24px" viewBox="0 0 20 24" version="1.1" xmlns="http://www.w3.org/2000/svg" xmlns:xlink="http://www.w3.org/1999/xlink">
    <!-- Generator: Sketch 47 (45396) - http://www.bohemiancoding.com/sketch -->
    <title>Shape</title>
    <desc>Created with Sketch.</desc>
    <defs>
        <path d="M12,14 C9.790861,14 8,12.209139 8,10 C8,7.790861 9.790861,6 12,6 C14.209139,6 16,7.790861 16,10 C16,12.209139 14.209139,14 12,14 Z M12,12 C13.1045695,12 14,11.1045695 14,10 C14,8.8954305 13.1045695,8 12,8 C10.8954305,8 10,8.8954305 10,10 C10,11.1045695 10.8954305,12 12,12 Z M12.7833232,21.1708449 C13.803622,20.3583847 14.8242479,19.4398214 15.7740473,18.4372554 C18.4274016,15.6364925 20,12.7533954 20,10 C19.9999999,5.58172206 16.418278,2.00000013 12,2.00000013 C7.58172205,2.00000013 4.00000007,5.58172206 4,10 C4,12.7533954 5.57259843,15.6364925 8.22595268,18.4372554 C9.1757521,19.4398214 10.196378,20.3583847 11.2166768,21.1708449 C11.4951711,21.3926088 11.7576885,21.5936103 12,21.7726168 C12.2423115,21.5936103 12.5048289,21.3926088 12.7833232,21.1708449 Z M17.2259527,19.8127446 C16.2070021,20.8883036 15.118253,21.8681778 14.0291768,22.7354051 C13.6473986,23.0394137 13.2921737,23.3081095 12.9722093,23.5391949 C12.777224,23.6800176 12.6351454,23.7784202 12.5547002,23.8320503 C12.2188008,24.0559832 11.7811992,24.0559832 11.4452998,23.8320503 C11.3648546,23.7784202 11.222776,23.6800176 11.0277907,23.5391949 C10.7078263,23.3081095 10.3526014,23.0394137 9.97082322,22.7354051 C8.88174698,21.8681778 7.7929979,20.8883036 6.77404732,19.8127446 C3.80240157,16.6760075 2,13.3716046 2,9.99999999 C2.00000008,4.47715254 6.47715256,1.3411045e-07 12,1.34110451e-07 C17.5228474,1.34110451e-07 21.9999999,4.47715254 22,9.99999999 C22,13.3716046 20.1975984,16.6760075 17.2259527,19.8127446 Z" id="path-1"></path>
    </defs>
    <g id="Symbols" stroke="none" stroke-width="1" fill="none" fill-rule="evenodd">
        <g id="Icons/Location" transform="translate(-2.000000, 0.000000)">
            <mask id="mask-2" fill="white">
                <use xlink:href="#path-1"></use>
            </mask>
            <use id="Shape" fill="#FFFFFF" fill-rule="nonzero" xlink:href="#path-1"></use>
        </g>
    </g>
</svg>
