<?xml version="1.0" encoding="UTF-8"?>
<svg width="24px" height="24px" viewBox="0 0 24 24" version="1.1" xmlns="http://www.w3.org/2000/svg" xmlns:xlink="http://www.w3.org/1999/xlink">
    <!-- Generator: Sketch 47 (45396) - http://www.bohemiancoding.com/sketch -->
    <title>Icons/Globe</title>
    <desc>Created with Sketch.</desc>
    <defs>
        <path d="M17.8474824,10.9090909 L23.6490962,10.9090909 C24.1118824,12.3636364 24.1169127,13.0909091 23.664187,13.0909091 L17.8505972,13.0909091 C17.5033416,17.0107779 15.7450236,20.7262561 12.8344072,23.6448251 C12.362131,24.1183916 11.5478688,24.1183916 11.0755927,23.6448251 C8.17357559,20.7348789 6.41705811,17.0327254 6.06251749,13.0909091 L0.301817091,13.0909091 C-0.377271364,13.0909091 0.301817091,12.6024925 0.301817091,12 C0.301817091,11.3975075 -0.377271364,10.9090909 0.301817091,10.9090909 L6.05940269,10.9090909 C6.40665829,6.98922208 8.16497629,3.27374394 11.0755927,0.355174875 C11.5478688,-0.118391625 12.362131,-0.118391625 12.8344072,0.355174875 C15.7364243,3.26512114 17.4929417,6.96727456 17.8474824,10.9090909 Z M8.04726348,10.9090909 L15.4995569,10.9090909 C15.2262428,8.02841184 13.9294416,5.27861215 11.7749726,3 C9.61205616,5.28714128 8.31355948,8.04602153 8.04726348,10.9090909 Z M15.4393697,13.0909091 L8.11461689,13.0909091 C8.49139198,15.7724166 9.75695482,18.3201889 11.7750276,20.4545455 C13.8002459,18.3130108 15.0676044,15.7578901 15.4393697,13.0909091 Z M12,24 C5.372583,24 0,18.627417 0,12 C0,5.372583 5.372583,0 12,0 C18.627417,0 24,5.372583 24,12 C24,18.627417 18.627417,24 12,24 Z M11.8181818,21.6363636 C17.2406139,21.6363636 21.6363636,17.2406139 21.6363636,11.8181818 C21.6363636,6.39574973 17.2406139,2 11.8181818,2 C6.39574973,2 2,6.39574973 2,11.8181818 C2,17.2406139 6.39574973,21.6363636 11.8181818,21.6363636 Z" id="path-1"></path>
        <rect id="path-3" x="0" y="0" width="24" height="24"></rect>
    </defs>
    <g id="Symbols" stroke="none" stroke-width="1" fill="none" fill-rule="evenodd">
        <g id="Icons/Globe">
            <mask id="mask-2" fill="white">
                <use xlink:href="#path-1"></use>
            </mask>
            <use id="Globe" fill="#9B9B9B" fill-rule="nonzero" xlink:href="#path-1"></use>
            <g id="Fill/Black" mask="url(#mask-2)">
                <mask id="mask-4" fill="white">
                    <use xlink:href="#path-3"></use>
                </mask>
                <use id="Rectangle-4" fill="#9B9B9B" fill-rule="evenodd" xlink:href="#path-3"></use>
            </g>
        </g>
    </g>
</svg>
