<?xml version="1.0" encoding="UTF-8"?>
<svg width="160px" height="25px" viewBox="0 0 160 25" version="1.1" xmlns="http://www.w3.org/2000/svg" xmlns:xlink="http://www.w3.org/1999/xlink">
    <!-- Generator: Sketch 47 (45396) - http://www.bohemiancoding.com/sketch -->
    <title>Logo</title>
    <desc>Created with Sketch.</desc>
    <defs></defs>
    <g id="Symbols" stroke="none" stroke-width="1" fill="none" fill-rule="evenodd">
        <g id="Navigation/Header/Global" transform="translate(-150.000000, -39.000000)">
            <g id="Logo" transform="translate(150.000000, 39.000000)">
                <g id="Logos/Graco_Color_Horz">
                    <g id="graco-logo_color">
                        <polygon id="Shape" fill="#222222" fill-rule="nonzero" points="6.9623431 0 0 12.0212424 6.9623431 24.0424847 13.9246862 24.0424847 6.9623431 12.0212424 13.9246862 0"></polygon>
                        <polygon id="Shape" fill="#0033AB" fill-rule="nonzero" points="13.9246862 0 20.083682 9.8841326 27.0460251 9.8841326 20.8870293 0"></polygon>
                        <polygon id="Shape" fill="#0033AB" fill-rule="nonzero" points="16.4686192 12.0212424 16.4686192 15.427261 18.8786611 15.427261 13.9246862 24.0424847 20.8870293 24.0424847 27.8493724 12.0212424"></polygon>
                        <g id="Group" transform="translate(156.652720, 4.674928)" fill-rule="nonzero" fill="#222222">
                            <path d="M1.53974895,3.33923399 C1.94142259,3.33923399 2.27615063,3.20566463 2.61087866,2.93852591 C2.87866109,2.67138719 3.0125523,2.27067911 3.0125523,1.93675571 C3.0125523,1.53604763 2.87866109,1.20212424 2.61087866,0.868200837 C2.34309623,0.601062118 1.94142259,0.467492758 1.53974895,0.467492758 C0.736401674,0.467492758 0.0669456067,1.13533956 0.0669456067,1.93675571 C0.0669456067,2.33746379 0.20083682,2.67138719 0.468619247,2.93852591 C0.80334728,3.13887995 1.13807531,3.33923399 1.53974895,3.33923399 M0.267782427,1.86997103 C0.267782427,1.53604763 0.40167364,1.20212424 0.669456067,1.0017702 C0.937238494,0.734631477 1.20502092,0.601062118 1.60669456,0.601062118 C1.94142259,0.601062118 2.27615063,0.734631477 2.54393305,1.0017702 C2.81171548,1.26890892 2.94560669,1.53604763 2.94560669,1.86997103 C2.94560669,2.60460251 2.34309623,3.13887995 1.67364017,3.13887995 C1.33891213,3.13887995 1.0041841,3.00531059 0.736401674,2.73817187 C0.40167364,2.53781783 0.267782427,2.20389443 0.267782427,1.86997103" id="Shape"></path>
                            <path d="M1.27196653,1.80318635 L1.67364017,1.80318635 C1.80753138,1.80318635 1.94142259,1.73640167 1.94142259,1.53604763 C1.94142259,1.3356936 1.80753138,1.3356936 1.67364017,1.3356936 L1.20502092,1.3356936 L1.27196653,1.80318635 L1.27196653,1.80318635 Z M1.27196653,2.53781783 L1.07112971,2.53781783 L1.07112971,1.13533956 L1.74058577,1.13533956 C1.94142259,1.13533956 2.20920502,1.20212424 2.20920502,1.53604763 C2.20920502,1.73640167 2.07531381,1.80318635 2.0083682,1.86997103 C2.07531381,1.86997103 2.14225941,1.93675571 2.14225941,2.13710975 L2.14225941,2.40424847 C2.14225941,2.47103315 2.14225941,2.53781783 2.20920502,2.53781783 L2.20920502,2.53781783 L2.0083682,2.53781783 C2.0083682,2.47103315 2.0083682,2.27067911 2.0083682,2.20389443 C2.0083682,2.07032507 2.0083682,1.93675571 1.74058577,1.93675571 L1.27196653,1.93675571 L1.27196653,2.53781783 L1.27196653,2.53781783 Z" id="Shape"></path>
                        </g>
                        <path d="M93.7238494,15.0933376 L96.6694561,8.54843901 L99.6820084,15.0933376 L93.7238494,15.0933376 Z M102.426778,21.1039588 L109.589958,21.1039588 L101.690377,5.07563566 L91.6485356,5.07563566 L84.3514644,21.1039588 L91.0460251,21.1039588 L92.3179916,18.2322176 L101.087866,18.2322176 L102.426778,21.1039588 Z" id="Shape" fill="#222222" fill-rule="nonzero"></path>
                        <g id="Group" transform="translate(36.150628, 4.674928)" fill-rule="nonzero" fill="#222222">
                            <path d="M38.4267782,8.41486965 L31.8661088,8.41486965 L31.8661088,4.14065014 L38.292887,4.14065014 C38.292887,4.14065014 39.8995816,3.94029611 39.8995816,6.2777599 C39.8995816,8.41486965 38.4267782,8.41486965 38.4267782,8.41486965 M41.9079498,10.1512713 C42.7782427,10.1512713 45.3891213,9.08271645 45.9246862,8.41486965 C46.7949791,7.34631477 46.7949791,4.9420663 46.3263598,3.40601867 C45.5230126,0.400708079 38.4937238,0.400708079 38.4937238,0.400708079 L31.8661088,0.400708079 L30.8619247,0.400708079 L25.4393305,0.400708079 L25.4393305,16.4290312 L31.8661088,16.4290312 L31.8661088,12.0212424 L37.623431,12.0212424 C38.2259414,12.0212424 39.6317992,12.2883811 39.6317992,13.4237206 L39.6317992,16.4290312 L46.3933054,16.4290312 C46.3933054,16.4290312 46.460251,12.9562279 46.125523,12.1548117 C45.3891213,10.0844866 41.0376569,10.1512713 41.9079498,10.1512713" id="Shape"></path>
                            <path d="M113.271967,11.687319 C112,12.7558738 108.920502,12.6223045 108.920502,12.6223045 L108.920502,12.6223045 C108.251046,12.6223045 105.841004,12.6223045 104.769874,11.687319 C104.100418,11.1530415 104.368201,8.14773093 104.368201,8.14773093 C104.368201,8.14773093 104.100418,5.34277438 104.83682,4.67492758 C105.774059,3.80672675 109.121339,3.94029611 109.121339,3.94029611 L109.121339,3.94029611 C109.857741,3.94029611 112.401674,3.94029611 113.205021,4.67492758 C113.941423,5.34277438 113.67364,8.14773093 113.67364,8.14773093 C113.67364,8.14773093 113.874477,11.1530415 113.271967,11.687319 M119.096234,2.67138719 C116.41841,-0.13356936 108.853556,0.333923399 108.853556,0.333923399 L108.853556,0.333923399 C107.648536,0.267138719 101.288703,0.13356936 98.8117155,2.67138719 C97.2050209,4.34100418 97.4728033,8.28130029 97.4728033,8.28130029 C97.4728033,8.28130029 97.2050209,12.5555198 99.3472803,14.3587061 C102.09205,16.6293853 109.054393,16.3622465 109.054393,16.3622465 L109.054393,16.3622465 C110.192469,16.3622465 116.016736,16.3622465 118.493724,14.3587061 C120.635983,12.5555198 120.435146,8.28130029 120.435146,8.28130029 C120.435146,8.28130029 120.702929,4.40778886 119.096234,2.67138719" id="Shape"></path>
                            <path d="M88.6359833,10.218056 L88.6359833,10.6855488 C88.6359833,12.5555198 87.2970711,12.6223045 84.6192469,12.6223045 C80.6694561,12.6223045 80.5355649,11.7541036 80.5355649,9.41663985 L80.5355649,6.94560669 C80.5355649,4.74171226 80.8702929,4.00708079 84.6192469,4.00708079 C86.8284519,4.00708079 88.3682008,4.14065014 88.6359833,5.47634374 L88.6359833,6.07740586 L95.3974895,6.07740586 L95.3974895,5.47634374 C95.2635983,0.801416157 92.1171548,0.333923399 85.3556485,0.333923399 C78.125523,0.333923399 73.7740586,1.06855488 73.7740586,6.2777599 L73.7740586,10.3516254 C73.7740586,16.0951078 78.6610879,16.2954619 85.3556485,16.2954619 C88.2343096,16.2954619 90.9121339,16.2954619 93.1882845,15.1601223 C95.3974895,13.9579981 95.4644351,12.4219504 95.4644351,10.6855488 L95.4644351,10.218056 C95.4644351,10.218056 88.6359833,10.218056 88.6359833,10.218056 Z" id="Shape"></path>
                            <path d="M22.5606695,5.34277438 C22.5606695,0.400708079 18.0083682,0.333923399 11.6485356,0.333923399 C4.41841004,0.400708079 0,1.13533956 0,6.34454458 L0,10.41841 C0,15.4940457 3.94979079,16.2954619 11.7154812,16.2954619 C20.4853556,16.2954619 22.6276151,15.3604763 22.6276151,10.0844866 L22.8284519,7.54666881 L11.58159,7.54666881 L11.3807531,9.81734792 L15.9330544,9.81734792 C15.9330544,12.0212424 15.0627615,12.8226585 11.7154812,12.8226585 C8.30125523,12.8226585 6.76150628,12.5555198 6.76150628,9.75056324 L6.76150628,7.21274541 C6.82845188,4.67492758 6.9623431,3.73994207 11.7154812,3.73994207 C13.6569038,3.73994207 15.7991632,3.73994207 15.9330544,5.2759897 L22.5606695,5.2759897 L22.5606695,5.34277438 Z" id="Shape"></path>
                        </g>
                    </g>
                </g>
            </g>
        </g>
    </g>
</svg>