<?xml version="1.0" encoding="UTF-8"?>
<svg width="24px" height="24px" viewBox="0 0 24 24" version="1.1" xmlns="http://www.w3.org/2000/svg" xmlns:xlink="http://www.w3.org/1999/xlink">
    <!-- Generator: Sketch 47 (45396) - http://www.bohemiancoding.com/sketch -->
    <title>Icons/Help - Question</title>
    <desc>Created with Sketch.</desc>
    <defs>
        <path d="M8.02343425,19.7649192 C8.30165025,19.6721806 8.60538122,19.6943879 8.86714935,19.8266076 C10.0083308,20.4030209 11.2695293,20.7017258 12.5504613,20.6983888 C15.6744205,20.6971799 18.5296903,18.9314213 19.9283808,16.132852 C20.5047942,14.9916707 20.8034991,13.7304724 20.8001657,12.4519827 L20.801832,11.9597521 C20.5708282,7.77256412 17.2274386,4.42917503 13.1008386,4.19984133 L12.5480192,4.19983759 C11.2695293,4.19650422 10.0083308,4.49520907 8.86297564,5.07371944 C6.06857954,6.47031261 4.30282061,9.32558191 4.30160813,12.4519827 C4.29827476,13.7304724 4.59697967,14.9916707 5.17339309,16.132852 C5.30561279,16.3946201 5.32782013,16.698351 5.23508146,16.9765669 L3.84090507,21.1590954 L8.02343425,19.7649192 Z M21.8940209,17.1204683 C20.1250026,20.6600361 16.5083276,22.8966637 12.5537547,22.8981913 C11.0853054,22.9020199 9.63480384,22.5923477 8.29860411,21.9919954 L2.44962516,23.9416548 C1.58976689,24.2282741 0.771725836,23.4102332 1.05834526,22.5503751 L3.00800449,16.7013984 C2.40765234,15.3652196 2.09797993,13.9149311 2.10180527,12.4486894 C2.10333644,8.49167504 4.33996443,4.8750006 7.87535911,3.10807962 C9.32580383,2.37545671 10.9287905,1.99580203 12.5508869,2.00003501 L13.1614272,2.00170505 C18.468185,2.29447451 22.7055291,6.53181791 22.9999687,11.8991634 L22.9999687,12.4477215 C23.003972,14.0721807 22.624326,15.6746349 21.8940209,17.1204683 Z M10.7367945,10.3404303 C10.9714753,9.67330122 11.6531034,9.27270242 12.3501273,9.39226052 C13.0471511,9.51181862 13.5563177,10.1166704 13.5552641,10.8238727 C13.5552631,11.1424907 13.2909884,11.4948569 12.7789167,11.836238 C12.5659175,11.9782374 12.3319984,12.1029943 12.0977299,12.2071136 C11.9593689,12.2686073 11.8565816,12.3077644 11.8090429,12.3236107 C11.3187917,12.4870277 11.0538402,13.0169305 11.2172573,13.5071816 C11.3806744,13.9974327 11.9105772,14.2623841 12.4008284,14.0989671 C12.7711584,13.9755237 13.2887362,13.7454892 13.8169772,13.3933286 C14.7961696,12.7405338 15.4266534,11.8998889 15.4266534,10.8252667 C15.4290654,9.20693925 14.2629096,7.82163367 12.6665001,7.54780705 C11.0700907,7.27398044 9.50894232,8.19148092 8.97144756,9.71942161 C8.79996073,10.2069086 9.05612955,10.7411124 9.54361663,10.9125992 C10.0311037,11.084086 10.5653076,10.8279173 10.7367945,10.3404303 Z M12.1666622,17.4192099 C12.7104434,17.4192099 13.1512651,16.9783882 13.1512651,16.4346071 C13.1512651,15.890826 12.7104434,15.4500043 12.1666622,15.4500043 C11.622881,15.4500043 11.1820592,15.890826 11.1820592,16.4346071 C11.1820592,16.9783882 11.622881,17.4192099 12.1666622,17.4192099 Z" id="path-1"></path>
        <rect id="path-3" x="0" y="0" width="24" height="24"></rect>
    </defs>
    <g id="Symbols" stroke="none" stroke-width="1" fill="none" fill-rule="evenodd">
        <g id="Icons/Help---Question">
            <mask id="mask-2" fill="white">
                <use xlink:href="#path-1"></use>
            </mask>
            <use id="Shape" fill="#222222" fill-rule="nonzero" xlink:href="#path-1"></use>
            <g id="Fill/Black" mask="url(#mask-2)">
                <mask id="mask-4" fill="white">
                    <use xlink:href="#path-3"></use>
                </mask>
                <use id="Rectangle-4" fill="#222222" fill-rule="evenodd" xlink:href="#path-3"></use>
            </g>
        </g>
    </g>
</svg>