<?xml version="1.0" encoding="UTF-8"?>
<svg width="24px" height="24px" viewBox="0 0 24 24" version="1.1" xmlns="http://www.w3.org/2000/svg" xmlns:xlink="http://www.w3.org/1999/xlink">
    <!-- Generator: Sketch 47 (45396) - http://www.bohemiancoding.com/sketch -->
    <title>Icons/Phone</title>
    <desc>Created with Sketch.</desc>
    <defs>
        <path d="M21,16.92 C21.0129027,16.3875913 20.643089,15.9511251 20.1492425,15.8814144 C19.1144045,15.7449298 18.0983282,15.4918147 17.1181391,15.1260523 C16.7527016,14.9886848 16.340736,15.0765448 16.0671068,15.3471068 L14.7971068,16.6171068 C14.4787938,16.9354198 13.9870293,17.0018074 13.5957055,16.7792945 C10.935688,15.2667668 8.73323318,13.064312 7.22070549,10.4042945 C6.99819261,10.0129707 7.06458021,9.52120622 7.38289322,9.20289322 L8.64894769,7.93686088 C8.92345523,7.65926402 9.0113152,7.2472984 8.87310275,6.87960484 C8.50818534,5.90167182 8.25507024,4.88559547 8.11984165,3.85995157 C8.04959207,3.36293531 7.62177368,2.99501149 7.11,3 L4.11094173,2.99999956 C3.83023885,3.0002639 3.5625715,3.1184944 3.37332462,3.32581008 C3.18407773,3.53312577 3.09067833,3.81043572 3.11440873,4.07440043 C3.42606543,7.00920526 4.42465571,9.82932831 6.03401379,12.3136785 C7.49061475,14.6059441 9.43405585,16.5493853 11.7341012,18.0109804 C14.1998725,19.6100241 17.0063472,20.6083877 19.9100082,20.924059 C20.1904402,20.949403 20.4685621,20.8553447 20.6760472,20.6649914 C20.8835322,20.4746382 21.0011511,20.2056315 21,19.92 L21,16.92 Z M13.3828932,15.2028932 L14.5842945,15.0407055 C14.3645363,14.9157476 14.1483176,14.7854528 13.9358065,14.6499895 L13.3828932,15.2028932 Z M22.9999918,19.915941 C23.0034205,20.7606587 22.6505637,21.5676786 22.0281086,22.1387383 C21.4056534,22.7097981 20.5712877,22.9919732 19.7119777,22.9141485 C16.4793206,22.5628939 13.3741258,21.4582649 10.6536785,19.6940138 C8.11360039,18.0799425 5.96005755,15.9263996 4.35072012,13.3936996 C2.5753004,10.6530797 1.47042057,7.53278385 1.12405827,4.27000044 C1.04826809,3.43130894 1.32846629,2.59937908 1.89620694,1.97743203 C2.4639476,1.35548498 3.26694964,1.00079348 4.11,1 L7.10015835,1.00004843 C8.60595443,0.985228194 9.88940962,2.08899965 10.1014144,3.58924251 C10.2181758,4.47453743 10.4347136,5.34378194 10.7460523,6.17813912 C11.1581548,7.27445166 10.8945749,8.51034851 10.0671068,9.34710678 L9.35001421,10.0641994 C10.5258702,11.9088481 12.0911572,13.4741344 13.9358065,14.6499895 L14.6568609,13.9289477 C15.4896515,13.1054251 16.7255483,12.8418452 17.8196048,13.2531028 C18.6562181,13.5652864 19.5254626,13.7818242 20.4196923,13.899805 C21.9235348,14.1119605 23.0308518,15.4141882 23,16.9311768 L22.9999918,19.915941 Z" id="path-1"></path>
        <rect id="path-3" x="0" y="0" width="24" height="24"></rect>
    </defs>
    <g id="Symbols" stroke="none" stroke-width="1" fill="none" fill-rule="evenodd">
        <g id="Icons/Phone">
            <mask id="mask-2" fill="white">
                <use xlink:href="#path-1"></use>
            </mask>
            <use id="Shape" fill="#ffffff" fill-rule="nonzero" xlink:href="#path-1"></use>
            <g id="Fill/Black" mask="url(#mask-2)">
                <mask id="mask-4" fill="white">
                    <use xlink:href="#path-3"></use>
                </mask>
                <use id="Rectangle-4" fill="#ffffff" fill-rule="evenodd" xlink:href="#path-3"></use>
            </g>
        </g>
    </g>
</svg>
