<?xml version="1.0" encoding="UTF-8"?>
<svg width="16px" height="16px" viewBox="0 0 16 16" version="1.1" xmlns="http://www.w3.org/2000/svg" xmlns:xlink="http://www.w3.org/1999/xlink">
    <!-- Generator: Sketch 47.1 (45422) - http://www.bohemiancoding.com/sketch -->
    <title>Group 2</title>
    <desc>Created with Sketch.</desc>
    <defs>
        <path d="M7.33333333,13.9633808 L7.33333333,12 C7.33333333,11.6318102 7.63181017,11.3333333 8,11.3333333 C8.36818983,11.3333333 8.66666667,11.6318102 8.66666667,12 L8.66666667,13.9633808 C11.4477444,13.6559483 13.6559483,11.4477444 13.9633808,8.66666667 L12,8.66666667 C11.6318102,8.66666667 11.3333333,8.36818983 11.3333333,8 C11.3333333,7.63181017 11.6318102,7.33333333 12,7.33333333 L13.9633808,7.33333333 C13.6559483,4.55225559 11.4477444,2.34405173 8.66666667,2.03661919 L8.66666667,4 C8.66666667,4.36818983 8.36818983,4.66666667 8,4.66666667 C7.63181017,4.66666667 7.33333333,4.36818983 7.33333333,4 L7.33333333,2.03661919 C4.55225559,2.34405173 2.34405173,4.55225559 2.03661919,7.33333333 L4,7.33333333 C4.36818983,7.33333333 4.66666667,7.63181017 4.66666667,8 C4.66666667,8.36818983 4.36818983,8.66666667 4,8.66666667 L2.03661919,8.66666667 C2.34405173,11.4477444 4.55225559,13.6559483 7.33333333,13.9633808 Z M8,15.3333333 C3.94991183,15.3333333 0.666666667,12.0500882 0.666666667,8 C0.666666667,3.94991183 3.94991183,0.666666667 8,0.666666667 C12.0500882,0.666666667 15.3333333,3.94991183 15.3333333,8 C15.3333333,12.0500882 12.0500882,15.3333333 8,15.3333333 Z" id="path-1"></path>
        <rect id="path-3" x="0" y="0" width="16" height="16"></rect>
    </defs>
    <g id="ðŸ”-Sprint-4---Locator-&amp;-Search" stroke="none" stroke-width="1" fill="none" fill-rule="evenodd">
        <g id="0.0-Distributor-Locator---Product-Category" transform="translate(-162.000000, -745.000000)">
            <g id="Buttons/Solid/White-Label-+-Icon" transform="translate(150.000000, 733.000000)">
                <g id="Group-2" transform="translate(12.000000, 12.000000)">
                    <g id="Icons/Locate">
                        <mask id="mask-2" fill="white">
                            <use xlink:href="#path-1"></use>
                        </mask>
                        <g id="Combined-Shape" fill-rule="nonzero"></g>
                        <g id="Fill/White" mask="url(#mask-2)">
                            <mask id="mask-4" fill="white">
                                <use xlink:href="#path-3"></use>
                            </mask>
                            <use id="Rectangle-4" fill="#FFFFFF" fill-rule="evenodd" xlink:href="#path-3"></use>
                        </g>
                    </g>
                </g>
            </g>
        </g>
    </g>
</svg>