<?xml version="1.0" encoding="UTF-8"?>
<svg width="166px" height="26px" viewBox="0 0 166 26" version="1.1" xmlns="http://www.w3.org/2000/svg" xmlns:xlink="http://www.w3.org/1999/xlink">
    <!-- Generator: Sketch 47.1 (45422) - http://www.bohemiancoding.com/sketch -->
    <title>graco-logo_color</title>
    <desc>Created with Sketch.</desc>
    <defs></defs>
    <g id="Symbols" stroke="none" stroke-width="1" fill="none" fill-rule="evenodd">
        <g id="Logos/Graco_White" fill-rule="nonzero" fill="#FFFFFF">
            <g id="graco-logo_color">
                <polygon id="Shape" points="7.22343096 0 0 12.5020921 7.22343096 25.0041841 14.4468619 25.0041841 7.22343096 12.5020921 14.4468619 0"></polygon>
                <polygon id="Shape" points="14.4468619 0 20.8368201 10.2794979 28.060251 10.2794979 21.6702929 0"></polygon>
                <polygon id="Shape" points="17.0861925 12.5020921 17.0861925 16.0443515 19.5866109 16.0443515 14.4468619 25.0041841 21.6702929 25.0041841 28.8937238 12.5020921"></polygon>
                <path d="M164.124686,8.33472803 C164.541423,8.33472803 164.888703,8.1958159 165.235983,7.91799163 C165.513808,7.64016736 165.65272,7.22343096 165.65272,6.87615063 C165.65272,6.45941423 165.513808,6.11213389 165.235983,5.76485356 C164.958159,5.48702929 164.541423,5.34811715 164.124686,5.34811715 C163.291213,5.34811715 162.596653,6.04267782 162.596653,6.87615063 C162.596653,7.29288703 162.735565,7.64016736 163.013389,7.91799163 C163.360669,8.12635983 163.70795,8.33472803 164.124686,8.33472803 M162.805021,6.80669456 C162.805021,6.45941423 162.943933,6.11213389 163.221757,5.90376569 C163.499582,5.62594142 163.777406,5.48702929 164.194142,5.48702929 C164.541423,5.48702929 164.888703,5.62594142 165.166527,5.90376569 C165.444351,6.18158996 165.583264,6.45941423 165.583264,6.80669456 C165.583264,7.5707113 164.958159,8.12635983 164.263598,8.12635983 C163.916318,8.12635983 163.569038,7.9874477 163.291213,7.70962343 C162.943933,7.50125523 162.805021,7.1539749 162.805021,6.80669456" id="Shape"></path>
                <path d="M163.846862,6.73723849 L164.263598,6.73723849 C164.40251,6.73723849 164.541423,6.66778243 164.541423,6.45941423 C164.541423,6.25104603 164.40251,6.25104603 164.263598,6.25104603 L163.777406,6.25104603 L163.846862,6.73723849 L163.846862,6.73723849 Z M163.846862,7.50125523 L163.638494,7.50125523 L163.638494,6.04267782 L164.333054,6.04267782 C164.541423,6.04267782 164.819247,6.11213389 164.819247,6.45941423 C164.819247,6.66778243 164.680335,6.73723849 164.610879,6.80669456 C164.680335,6.80669456 164.749791,6.87615063 164.749791,7.08451883 L164.749791,7.3623431 C164.749791,7.43179916 164.749791,7.50125523 164.819247,7.50125523 L164.819247,7.50125523 L164.610879,7.50125523 C164.610879,7.43179916 164.610879,7.22343096 164.610879,7.1539749 C164.610879,7.01506276 164.610879,6.87615063 164.333054,6.87615063 L163.846862,6.87615063 L163.846862,7.50125523 L163.846862,7.50125523 Z" id="Shape"></path>
                <path d="M97.2384937,15.6970711 L100.294561,8.89037657 L103.420084,15.6970711 L97.2384937,15.6970711 Z M106.267782,21.9481172 L113.699582,21.9481172 L105.503766,5.27866109 L95.0853556,5.27866109 L87.5146444,21.9481172 L94.460251,21.9481172 L95.7799163,18.9615063 L104.878661,18.9615063 L106.267782,21.9481172 Z" id="Shape"></path>
                <path d="M77.3740586,13.6133891 L70.567364,13.6133891 L70.567364,9.16820084 L77.2351464,9.16820084 C77.2351464,9.16820084 78.9020921,8.95983264 78.9020921,11.390795 C78.9020921,13.6133891 77.3740586,13.6133891 77.3740586,13.6133891 M80.9857741,15.4192469 C81.8887029,15.4192469 84.5974895,14.3079498 85.1531381,13.6133891 C86.0560669,12.5020921 86.0560669,10.0016736 85.5698745,8.4041841 C84.7364017,5.27866109 77.4435146,5.27866109 77.4435146,5.27866109 L70.567364,5.27866109 L69.525523,5.27866109 L63.8995816,5.27866109 L63.8995816,21.9481172 L70.567364,21.9481172 L70.567364,17.3640167 L76.5405858,17.3640167 C77.1656904,17.3640167 78.6242678,17.641841 78.6242678,18.8225941 L78.6242678,21.9481172 L85.6393305,21.9481172 C85.6393305,21.9481172 85.7087866,18.3364017 85.3615063,17.5029289 C84.5974895,15.3497908 80.0828452,15.4192469 80.9857741,15.4192469" id="Shape"></path>
                <path d="M155.025941,17.0167364 C153.706276,18.1280335 150.511297,17.9891213 150.511297,17.9891213 L150.511297,17.9891213 C149.816736,17.9891213 147.316318,17.9891213 146.205021,17.0167364 C145.51046,16.4610879 145.788285,13.3355649 145.788285,13.3355649 C145.788285,13.3355649 145.51046,10.41841 146.274477,9.72384937 C147.246862,8.8209205 150.719665,8.95983264 150.719665,8.95983264 L150.719665,8.95983264 C151.483682,8.95983264 154.123013,8.95983264 154.956485,9.72384937 C155.720502,10.41841 155.442678,13.3355649 155.442678,13.3355649 C155.442678,13.3355649 155.651046,16.4610879 155.025941,17.0167364 M161.068619,7.64016736 C158.290377,4.72301255 150.441841,5.20920502 150.441841,5.20920502 L150.441841,5.20920502 C149.191632,5.13974895 142.593305,5.00083682 140.023431,7.64016736 C138.356485,9.37656904 138.63431,13.474477 138.63431,13.474477 C138.63431,13.474477 138.356485,17.9196653 140.579079,19.7949791 C143.426778,22.1564854 150.650209,21.8786611 150.650209,21.8786611 L150.650209,21.8786611 C151.830962,21.8786611 157.87364,21.8786611 160.443515,19.7949791 C162.666109,17.9196653 162.457741,13.474477 162.457741,13.474477 C162.457741,13.474477 162.735565,9.4460251 161.068619,7.64016736" id="Shape"></path>
                <path d="M129.466109,15.4887029 L129.466109,15.9748954 C129.466109,17.9196653 128.076987,17.9891213 125.298745,17.9891213 C121.200837,17.9891213 121.061925,17.0861925 121.061925,14.6552301 L121.061925,12.0853556 C121.061925,9.79330544 121.409205,9.0292887 125.298745,9.0292887 C127.590795,9.0292887 129.188285,9.16820084 129.466109,10.5573222 L129.466109,11.1824268 L136.481172,11.1824268 L136.481172,10.5573222 C136.342259,5.69539749 133.077824,5.20920502 126.062762,5.20920502 C118.561506,5.20920502 114.046862,5.97322176 114.046862,11.390795 L114.046862,15.6276151 C114.046862,21.6008368 119.117155,21.809205 126.062762,21.809205 C129.049372,21.809205 131.827615,21.809205 134.189121,20.6284519 C136.481172,19.3782427 136.550628,17.7807531 136.550628,15.9748954 L136.550628,15.4887029 C136.550628,15.4887029 129.466109,15.4887029 129.466109,15.4887029 Z" id="Shape"></path>
                <path d="M60.9129707,10.41841 C60.9129707,5.27866109 56.1899582,5.20920502 49.5916318,5.20920502 C42.0903766,5.27866109 37.5062762,6.04267782 37.5062762,11.460251 L37.5062762,15.6970711 C37.5062762,20.9757322 41.6041841,21.809205 49.6610879,21.809205 C58.7598326,21.809205 60.9824268,20.8368201 60.9824268,15.3497908 L61.190795,12.7104603 L49.5221757,12.7104603 L49.3138075,15.0719665 L54.0368201,15.0719665 C54.0368201,17.3640167 53.1338912,18.1974895 49.6610879,18.1974895 C46.1188285,18.1974895 44.5213389,17.9196653 44.5213389,15.0025105 L44.5213389,12.3631799 C44.590795,9.72384937 44.7297071,8.75146444 49.6610879,8.75146444 C51.6753138,8.75146444 53.8979079,8.75146444 54.0368201,10.348954 L60.9129707,10.348954 L60.9129707,10.41841 Z" id="Shape"></path>
            </g>
        </g>
    </g>
</svg>